<svg width="32" height="32" viewBox="0 0 32 32" fill="none" xmlns="http://www.w3.org/2000/svg">
<rect width="32" height="32" rx="16" fill="#E9ECEF"/>
<path d="M10.516 19.88V16.824H7.46V15.648H10.516V12.6H11.692V15.648H14.74V16.824H11.692V19.88H10.516ZM16.5031 21.992L16.5111 20.712L21.6231 16.112C22.0498 15.728 22.3351 15.3653 22.4791 15.024C22.6285 14.6773 22.7031 14.3227 22.7031 13.96C22.7031 13.5173 22.6018 13.1173 22.3991 12.76C22.1965 12.4027 21.9191 12.12 21.5671 11.912C21.2205 11.704 20.8258 11.6 20.3831 11.6C19.9245 11.6 19.5165 11.7093 19.1591 11.928C18.8018 12.1413 18.5191 12.4267 18.3111 12.784C18.1085 13.1413 18.0098 13.5307 18.0151 13.952H16.5591C16.5591 13.2267 16.7271 12.5867 17.0631 12.032C17.3991 11.472 17.8551 11.0347 18.4311 10.72C19.0125 10.4 19.6711 10.24 20.4071 10.24C21.1218 10.24 21.7618 10.4053 22.3271 10.736C22.8925 11.0613 23.3378 11.5067 23.6631 12.072C23.9938 12.632 24.1591 13.2667 24.1591 13.976C24.1591 14.4773 24.0951 14.912 23.9671 15.28C23.8445 15.648 23.6525 15.9893 23.3911 16.304C23.1298 16.6133 22.8018 16.944 22.4071 17.296L18.1591 21.112L17.9751 20.632H24.1591V21.992H16.5031Z" fill="#ADB5BD"/>
</svg>
