<svg width="32" height="32" viewBox="0 0 32 32" fill="none" xmlns="http://www.w3.org/2000/svg">
<g clip-path="url(#clip0_42_1191)">
<path d="M0.658 20.666C1.66158 23.9469 3.69197 26.8189 6.45027 28.8593C9.20857 30.8996 12.5491 32.0006 15.98 32C24.828 32 32 24.836 32 16C32 7.164 24.828 1.19957e-06 15.982 1.19957e-06C11.9205 -0.00156997 8.01026 1.54032 5.04291 4.31345C2.07557 7.08659 0.272928 10.8837 0 14.936L0.006 14.948L8.614 18.486C9.39036 17.972 10.3099 17.7178 11.24 17.76L15.16 12.072L15.158 11.992C15.1596 10.3787 15.801 8.83195 16.9416 7.69101C18.0822 6.55006 19.6287 5.90812 21.242 5.906C22.8553 5.90812 24.4018 6.55006 25.5424 7.69101C26.683 8.83195 27.3244 10.3787 27.326 11.992C27.3254 12.8027 27.163 13.605 26.8484 14.3522C26.5339 15.0993 26.0734 15.7762 25.494 16.3431C24.9145 16.9101 24.2278 17.3557 23.474 17.6539C22.7202 17.9522 21.9145 18.097 21.104 18.08L15.496 22.08C15.515 22.8209 15.3485 23.5549 15.0116 24.2151C14.6747 24.8752 14.1781 25.4407 13.567 25.8601C12.9558 26.2794 12.2495 26.5393 11.5124 26.6162C10.7752 26.693 10.0305 26.5843 9.346 26.3C8.68905 26.0262 8.10765 25.5984 7.65092 25.0525C7.1942 24.5067 6.87559 23.8589 6.722 23.164L0.66 20.666H0.658Z" fill="#171717"/>
<path d="M9.73598 25.366C10.5693 25.6841 11.4936 25.665 12.3131 25.313C13.1326 24.9609 13.7827 24.3035 14.1256 23.4801C14.4685 22.6567 14.4771 21.7322 14.1498 20.9025C13.8224 20.0729 13.1847 19.4034 12.372 19.036C11.5662 18.6997 10.6621 18.6854 9.84598 18.996L11.892 19.844C12.198 19.9714 12.4759 20.1578 12.7098 20.3926C12.9437 20.6273 13.1291 20.9059 13.2554 21.2123C13.3817 21.5188 13.4464 21.8471 13.4458 22.1785C13.4452 22.5099 13.3794 22.838 13.252 23.144C13.1246 23.45 12.9382 23.7279 12.7034 23.9618C12.4686 24.1957 12.1901 24.3812 11.8836 24.5074C11.5772 24.6337 11.2489 24.6984 10.9175 24.6978C10.586 24.6972 10.258 24.6314 9.95198 24.504L7.97198 23.684C8.33231 24.4426 8.96067 25.0431 9.73598 25.366ZM17.188 11.992C17.1885 13.0674 17.6157 14.0986 18.3757 14.8594C19.1358 15.6202 20.1666 16.0484 21.242 16.05C22.3174 16.0484 23.3482 15.6202 24.1083 14.8594C24.8683 14.0986 25.2955 13.0674 25.296 11.992C25.2944 10.9173 24.8668 9.88706 24.1068 9.12713C23.3469 8.3672 22.3167 7.93958 21.242 7.93799C20.1673 7.93958 19.1371 8.3672 18.3771 9.12713C17.6172 9.88706 17.1896 10.9173 17.188 11.992ZM21.248 8.93799C21.6483 8.93825 22.0446 9.01735 22.4143 9.17077C22.784 9.32419 23.1198 9.54892 23.4027 9.83214C23.6855 10.1154 23.9098 10.4515 24.0627 10.8214C24.2157 11.1913 24.2942 11.5877 24.294 11.988C24.2937 12.3883 24.2146 12.7846 24.0612 13.1543C23.9078 13.524 23.6831 13.8598 23.3998 14.1427C23.1166 14.4255 22.7805 14.6498 22.4106 14.8027C22.0407 14.9557 21.6443 15.0343 21.244 15.034C20.4356 15.0335 19.6605 14.7118 19.0893 14.1398C18.5181 13.5678 18.1975 12.7924 18.198 11.984C18.1985 11.1756 18.5202 10.4005 19.0921 9.82931C19.6641 9.25808 20.4396 8.93746 21.248 8.93799Z" fill="#171717"/>
</g>
<defs>
<clipPath id="clip0_42_1191">
<rect width="32" height="32" fill="white"/>
</clipPath>
</defs>
</svg>
