<svg width="24" height="24" viewBox="0 0 24 24" fill="none" xmlns="http://www.w3.org/2000/svg">
<rect width="24" height="24" rx="12" fill="#FA1D80"/>
<path d="M11.9998 5.33334C11.3766 5.33341 10.7659 5.50816 10.2371 5.83775C9.7082 6.16735 9.28232 6.6386 9.00776 7.19801L8.93909 7.34801C8.68245 7.94337 8.60506 8.60066 8.71642 9.23934L8.73442 9.33268C8.02806 9.31791 7.33527 9.52797 6.75605 9.93253C6.17682 10.3371 5.74112 10.9152 5.51184 11.5835C5.28255 12.2518 5.27153 12.9756 5.48037 13.6506C5.68922 14.3255 6.10711 14.9167 6.67376 15.3387L6.80576 15.432C7.2335 15.7201 7.72227 15.905 8.23359 15.9721C8.74492 16.0392 9.26484 15.9867 9.75242 15.8187L9.86842 15.7747L9.35309 17.838C9.32847 17.9363 9.32657 18.0389 9.34756 18.1381C9.36855 18.2372 9.41186 18.3303 9.4742 18.4102C9.53654 18.49 9.61628 18.5547 9.70735 18.5991C9.79842 18.6436 9.89842 18.6667 9.99976 18.6667H13.9998L14.0751 18.6627C14.1695 18.6519 14.2605 18.6212 14.342 18.5724C14.4235 18.5236 14.4937 18.458 14.5478 18.3799C14.6019 18.3018 14.6387 18.2131 14.6557 18.1196C14.6727 18.0262 14.6695 17.9302 14.6464 17.838L14.1304 15.7747L14.2464 15.818C14.707 15.9765 15.1967 16.0321 15.681 15.9809C16.1654 15.9297 16.6327 15.773 17.05 15.5219C17.4673 15.2707 17.8244 14.9311 18.0964 14.527C18.3683 14.1229 18.5483 13.6641 18.6239 13.183C18.6994 12.7018 18.6686 12.2099 18.5336 11.742C18.3985 11.274 18.1626 10.8413 17.8424 10.4743C17.5221 10.1073 17.1253 9.81501 16.6799 9.61788C16.2346 9.42076 15.7514 9.32363 15.2644 9.33334L15.2831 9.24001C15.3671 8.76096 15.3452 8.26933 15.2189 7.79965C15.0926 7.32998 14.865 6.89365 14.5521 6.52133C14.2392 6.149 13.8485 5.84971 13.4076 5.64447C12.9666 5.43924 12.4861 5.33304 11.9998 5.33334Z" fill="white"/>
</svg>
